PathFileType	4	(X/Y/Z)	C:/Users/opensim2020/Desktop/walking_exp_matlab/subject01_walking08_straight_02.trc																																																																																																																															
DataRate	CameraRate	NumFrames	NumMarkers	Units	OrigDataRate	OrigDataStartFrame	OrigNumFrames																																																																																																																											
100	100	4	43	mm	100	1923	311																																																																																																																											
Frame#	Time	LFHD			RFHD			LBHD			RBHD			C7			T10			CLAV			STRN			RBAK			LSHO			LUPA			LELB			LFRM			LWRA			LWRB			LFIN			RSHO			RUPA			RELB			RFRM			RWRA			RWRB			RFIN			LASI			RASI			LPSI			RPSI			LTHI			LKNE			LTIB			LANK			LHEE			LTOE			RTHI			RKNE			RTIB			RANK			RHEE			RTOE			*39			*40			*41			*42		
		X1	Y1	Z1	X2	Y2	Z2	X3	Y3	Z3	X4	Y4	Z4	X5	Y5	Z5	X6	Y6	Z6	X7	Y7	Z7	X8	Y8	Z8	X9	Y9	Z9	X10	Y10	Z10	X11	Y11	Z11	X12	Y12	Z12	X13	Y13	Z13	X14	Y14	Z14	X15	Y15	Z15	X16	Y16	Z16	X17	Y17	Z17	X18	Y18	Z18	X19	Y19	Z19	X20	Y20	Z20	X21	Y21	Z21	X22	Y22	Z22	X23	Y23	Z23	X24	Y24	Z24	X25	Y25	Z25	X26	Y26	Z26	X27	Y27	Z27	X28	Y28	Z28	X29	Y29	Z29	X30	Y30	Z30	X31	Y31	Z31	X32	Y32	Z32	X33	Y33	Z33	X34	Y34	Z34	X35	Y35	Z35	X36	Y36	Z36	X37	Y37	Z37	X38	Y38	Z38	X39	Y39	Z39	X40	Y40	Z40	X41	Y41	Z41	X42	Y42	Z42	X43	Y43	Z43
																																																																																																																																		
117	1.16	-581.24023	1680.30151	-1451.49292	-557.9093	1692.93872	-1340.87085	-686.05878	1616.26843	-1429.95459	-665.18201	1628.03308	-1312.42578	-698.1897	1435.9751	-1383.17065	-721.97211	1142.17273	-1364.04102	-553.68176	1373.30066	-1389.00427	-503.71893	1219.27905	-1394.28711	-739.33679	1240.0437	-1297.5	-621.51801	1396.90308	-1547.9071	-654.08954	1209.3175	-1625.20801	-669.92145	1059.0896	-1618.0155	-633.56793	951.04675	-1641.89429	-553.72296	836.93622	-1624.44788	-610.19885	830.85175	-1645.71985	-561.45551	761.63959	-1655.63635	-608.19733	1400.1593	-1234.43994	-639.77771	1196.54822	-1124.85449	-623.98596	1071.8811	-1119.65869	-567.41614	963.81421	-1093.64404	-461.06796	872.17981	-1120.41174	-501.15631	861.17157	-1079.3479	-445.06625	796.61603	-1084.51941	-552.3399	938.82544	-1478.70801	-540.24493	935.7345	-1261.76611	-735.48993	950.11481	-1418.16431	-724.92224	953.97418	-1273.08142	-503.27585	624.91187	-1548.03369	-481.11728	492.49054	-1534.66248	-585.47998	336.2735	-1535.23718	-681.60638	141.98244	-1479.14124	-722.45001	122.25169	-1416.55493	-563.70789	61.86111	-1513.01978	-604.24988	601.0249	-1216.54871	-604.55298	443.41501	-1249.34448	-663.72052	277.40341	-1247.64441	-706.81757	76.82238	-1296.11938	-760.65015	39.52872	-1342.40601	-569.61536	39.7217	-1304.19067	-577.98187	1723.40991	-1362.30627	-1973.18872	1023.37744	3101.87524	-2012.51062	1021.99561	3140.78223	NaN	NaN	NaN
118	1.17	-574.12677	1680.00452	-1451.92114	-550.67279	1692.59155	-1341.24976	-678.92096	1616.00952	-1430.21167	-658.01788	1627.83728	-1312.74841	-691.30719	1435.8772	-1383.28577	-715.79071	1142.17737	-1363.95557	-546.9494	1372.91675	-1389.26733	-497.23663	1218.7948	-1394.43066	-732.77338	1240.13257	-1297.35754	-614.94019	1396.48962	-1548.14038	-648.69739	1208.97595	-1625.15564	-665.51678	1058.93127	-1617.7937	-630.32544	950.5769	-1641.69336	-551.70544	835.52728	-1624.38477	-608.2807	830.10632	-1645.57483	-560.32581	760.31714	-1655.53003	-601.18976	1400.04993	-1234.70447	-632.50696	1196.45361	-1124.80005	-616.32977	1071.83936	-1119.50317	-558.84869	964.18933	-1093.7511	-451.41022	873.63849	-1120.87598	-491.32037	862.24768	-1079.88025	-434.54163	798.39117	-1085.01624	-546.41437	938.79254	-1478.71118	-535.00256	935.06165	-1261.70972	-729.75226	949.95514	-1418.6322	-719.76855	953.57623	-1273.53259	-494.86227	625.77679	-1548.54077	-472.34073	493.47397	-1534.73096	-570.49005	332.99936	-1536.07471	-657.32709	133.50015	-1480.45618	-697.27454	111.7695	-1417.89868	-535.69781	59.68358	-1514.74512	-600.88245	600.54926	-1216.88916	-601.95679	442.75739	-1249.59216	-662.24432	277.12778	-1247.91541	-706.47675	76.83631	-1296.15637	-760.59363	39.70889	-1342.50671	-569.46375	39.48906	-1304.11951	-570.75165	1723.10718	-1362.72278	-1972.91516	1023.96722	3101.96655	-2012.49451	1022.02887	3140.65723	NaN	NaN	NaN
119	1.18	-566.90515	1679.59155	-1452.26941	-543.47205	1692.26526	-1341.69153	-671.85651	1615.75208	-1430.65552	-650.92609	1627.60144	-1313.15234	-684.42114	1435.7406	-1383.46521	-709.60706	1142.11462	-1363.91284	-540.2226	1372.52686	-1389.59546	-490.74548	1218.31226	-1394.64136	-726.21655	1240.18396	-1297.25708	-608.36115	1396.04431	-1548.40466	-643.23987	1208.52405	-1625.14417	-661.03027	1058.75195	-1617.65295	-626.94598	950.13483	-1641.62329	-549.55243	834.22235	-1624.44604	-606.21655	829.38623	-1645.49756	-559.03784	759.01068	-1655.45447	-594.14545	1399.771	-1234.97327	-625.31024	1196.34241	-1124.9563	-608.70184	1071.70081	-1119.63074	-550.16675	964.56012	-1093.96887	-441.90125	875.10388	-1121.40942	-481.60571	863.10303	-1080.21765	-424.17554	799.94122	-1085.66675	-540.42401	938.73224	-1478.64807	-529.73907	934.32501	-1261.64856	-723.91364	949.82959	-1419.23254	-714.44354	953.0954	-1274.14441	-487.19095	626.90961	-1549.06238	-464.15643	494.24738	-1534.82202	-555.89349	329.70837	-1536.89978	-632.79663	125.65641	-1482.17188	-671.71515	101.76257	-1419.69958	-507.26346	57.53778	-1516.15222	-597.2951	599.97467	-1217.32947	-599.50208	442.27335	-1249.91089	-660.75677	276.9472	-1248.10889	-706.22888	76.908	-1296.22131	-760.53021	39.91539	-1342.62805	-569.29016	39.26455	-1304.04749	-563.57043	1722.79089	-1363.23352	-1973.18921	1023.38867	3101.90552	-2012.45898	1021.91638	3140.73071	NaN	NaN	NaN
120	1.19	-559.76978	1679.14172	-1452.77734	-536.35846	1691.80713	-1342.12476	-664.72791	1615.38403	-1431.07007	-643.84198	1627.26111	-1313.60815	-677.52319	1435.55591	-1383.75964	-703.35101	1142.01489	-1363.94287	-533.43158	1372.0332	-1389.95178	-484.3165	1217.7041	-1394.84741	-719.66418	1240.20435	-1297.19678	-601.71967	1395.58911	-1548.7793	-637.84009	1208.04004	-1624.97607	-656.37732	1058.5874	-1617.56335	-623.46161	949.66467	-1641.54053	-547.28802	832.88672	-1624.5033	-604.07135	828.72266	-1645.51062	-557.64813	757.70886	-1655.40271	-587.09436	1399.56897	-1235.24207	-617.99249	1196.18738	-1125.12415	-601.05243	1071.53479	-1119.42969	-541.54718	964.70184	-1094.18054	-432.54794	876.42499	-1122.02698	-471.98465	864.052	-1080.95557	-413.81268	801.63788	-1086.47546	-534.32336	938.63568	-1478.58313	-524.33258	933.57977	-1261.48022	-717.99292	949.65247	-1419.84717	-709.09143	952.72333	-1274.93799	-480.34088	627.28662	-1549.7301	-456.53036	494.733	-1535.06213	-541.50543	326.34259	-1537.78137	-607.66803	117.96856	-1484.02258	-645.73895	92.18646	-1421.69373	-479.01523	56.43275	-1517.86243	-593.56567	599.47198	-1217.71448	-596.92975	441.81155	-1250.19263	-659.43542	276.85291	-1248.33484	-705.9765	77.06709	-1296.28711	-760.41022	40.205	-1342.7345	-569.14209	39.1215	-1303.9668	-556.38885	1722.32251	-1363.6521	-1973.2074	1023.39307	3101.90234	-2012.48901	1021.92242	3140.69019	NaN	NaN	NaN
